<svg id="Glyph" viewBox="0 0 64 64" xmlns="http://www.w3.org/2000/svg" width="300" height="300" version="1.1" xmlns:xlink="http://www.w3.org/1999/xlink" xmlns:svgjs="http://svgjs.dev/svgjs"><g transform="matrix(1,0,0,1,0,0)"><rect height="4" rx="1" width="6" x="32" y="43" fill="#ffffffff" data-original-color="#000000ff" stroke="none"/><path d="m55 36h-24c-2.75684 0-5 2.24316-5 5v14c0 2.75684 2.24316 5 5 5h24c2.75684 0 5-2.24316 5-5v-14c0-2.75684-2.24316-5-5-5zm-6.5 6h1c.55273 0 1 .44727 1 1s-.44727 1-1 1h-1c-.55273 0-1-.44727-1-1s.44727-1 1-1zm-8.5 4c0 1.6543-1.3457 3-3 3h-4c-1.6543 0-3-1.3457-3-3v-2c0-1.6543 1.3457-3 3-3h4c1.6543 0 3 1.3457 3 3zm4-2h-1c-.55273 0-1-.44727-1-1s.44727-1 1-1h1c.55273 0 1 .44727 1 1s-.44727 1-1 1zm11 4h-6.5c-.55273 0-1-.44727-1-1s.44727-1 1-1h6.5c.55273 0 1 .44727 1 1s-.44727 1-1 1zm0-4h-1c-.55273 0-1-.44727-1-1s.44727-1 1-1h1c.55273 0 1 .44727 1 1s-.44727 1-1 1z" fill="#ffffffff" data-original-color="#000000ff" stroke="none"/><rect height="5" rx="2" width="56" x="4" y="20.251" fill="#ffffffff" data-original-color="#000000ff" stroke="none"/><path d="m6 55c-1.09998 0-2 .89996-2 2v1c0 1.09998.90002 2 2 2h20.10999c-1.29999-1.27002-2.10999-3.04004-2.10999-5z" fill="#ffffffff" data-original-color="#000000ff" stroke="none"/><path d="m19.40002 18.24811h25.19996l-12.59998-8.0603z" fill="#ffffffff" data-original-color="#000000ff" stroke="none"/><path d="m31.46002 8.15765c.32996-.20996.75-.20996 1.07996 0l15.77002 10.09045h7.41998l-21.02997-13.46057c-1.64001-1.05005-3.76001-1.05005-5.40002 0l-21.02997 13.46057h7.41998z" fill="#ffffffff" data-original-color="#000000ff" stroke="none"/><path d="m55.64001 34.03998-.44-6.78998h-8.40002l-.44 6.75h8.64001c.21997 0 .42999.01001.64001.03998z" fill="#ffffffff" data-original-color="#000000ff" stroke="none"/><path d="m8.79999 27.25122-1.66999 25.75116h11.74l-1.66999-25.75116z" fill="#ffffffff" data-original-color="#000000ff" stroke="none"/></g></svg>