<svg version="1.1" id="Capa_1" xmlns="http://www.w3.org/2000/svg" xmlns:xlink="http://www.w3.org/1999/xlink" x="0px" y="0px" viewBox="0 0 512 512" style="enable-background:new 0 0 512 512;" xml:space="preserve" width="300" height="300" xmlns:svgjs="http://svgjs.dev/svgjs"><g transform="matrix(1,0,0,1,0,0)"><g>
	<g>
		<path d="M452,362.518V346c0-24.814-20.186-45-45-45H271v-31.516c67.315-7.573,120-64.177,120-133.484C391,61.557,330.443,0,256,0&#10;&#9;&#9;&#9;S121,61.557,121,136c0,69.307,52.685,125.911,120,133.484V301H105c-24.814,0-45,20.186-45,45v16.518&#10;&#9;&#9;&#9;C25.809,369.487,0,399.784,0,436c0,41.353,33.647,76,75,76s75-34.647,75-76c0-36.216-25.809-66.513-60-73.482V346&#10;&#9;&#9;&#9;c0-8.276,6.724-15,15-15h136v31.518c-34.191,6.969-60,37.266-60,73.482c0,41.353,33.647,76,75,76c41.353,0,75-34.647,75-76&#10;&#9;&#9;&#9;c0-36.216-25.809-66.513-60-73.482V331h136c8.276,0,15,6.724,15,15v16.518c-34.191,6.969-60,37.266-60,73.482&#10;&#9;&#9;&#9;c0,41.353,33.647,76,75,76c41.353,0,75-34.647,75-76C512,399.784,486.191,369.487,452,362.518z M256,241c-8.291,0-15-6.709-15-15&#10;&#9;&#9;&#9;v-17.741c-9.879-3.338-19.345-9.672-27.437-19.319c-5.332-6.343-4.512-15.806,1.846-21.123c6.343-5.303,15.835-4.497,21.123,1.846&#10;&#9;&#9;&#9;c7.939,9.434,16.948,13.242,24.595,10.444C267.03,177.953,271,172.284,271,166c0-8.276-6.724-15-15-15c-24.814,0-45-20.186-45-45&#10;&#9;&#9;&#9;c0-17.686,9.998-34.916,30-42.083V46c0-8.291,6.709-15,15-15s15,6.709,15,15v17.944c7.771,2.624,15.348,6.795,22.104,13.345&#10;&#9;&#9;&#9;c5.947,5.757,6.094,15.249,0.322,21.211c-5.757,5.947-15.278,6.079-21.211,0.322c-7.28-7.061-15.396-9.521-22.046-6.65&#10;&#9;&#9;&#9;C244.604,94.53,241,99.95,241,106c0,8.276,6.724,15,15,15c24.814,0,45,20.186,45,45c0,18.853-11.895,35.845-29.604,42.29&#10;&#9;&#9;&#9;c-0.13,0.048-0.266,0.026-0.396,0.071V226C271,234.291,264.291,241,256,241z" fill="#ffffffff" data-original-color="#000000ff" stroke="none"/>
	</g>
</g><g>
</g><g>
</g><g>
</g><g>
</g><g>
</g><g>
</g><g>
</g><g>
</g><g>
</g><g>
</g><g>
</g><g>
</g><g>
</g><g>
</g><g>
</g></g></svg>