<svg xmlns="http://www.w3.org/2000/svg" id="Layer_1" data-name="Layer 1" viewBox="0 0 128 128" width="300" height="300" version="1.1" xmlns:xlink="http://www.w3.org/1999/xlink" xmlns:svgjs="http://svgjs.dev/svgjs"><g transform="matrix(1,0,0,1,0,0)"><title/><path d="M98.43506,61.6543c-1.49854-.418-2.2251-.67676-2.40918-1.2373-.145-.44727.46973-.81543.71777-.91895a3.20816,3.20816,0,0,1,2.855.32129,2,2,0,0,0,2.14062-3.37891,7.27147,7.27147,0,0,0-1.13916-.57428V55a2,2,0,0,0-4,0v.41229a6.55142,6.55142,0,0,0-1.39746.39435,4.76529,4.76529,0,0,0-2.979,5.85156c.87354,2.66016,3.33838,3.34766,5.13818,3.84863,1.08984.30371,2.11914.59082,2.46338,1.14648a1.001,1.001,0,0,1,.04736,1.04785c-.41113.61523-1.64111.76074-2.58447.58887a2.40622,2.40622,0,0,1-1.00732-.47656,2,2,0,0,0-2.46484,3.15039,6.43321,6.43321,0,0,0,2.24756,1.13342V73a2,2,0,0,0,4,0v-.9137a5.35922,5.35922,0,0,0,3.13477-2.16345,4.97772,4.97772,0,0,0,.02734-5.376C102.05957,62.66406,100.05029,62.10352,98.43506,61.6543Z" fill="#ffffffff" data-original-color="#000000ff" stroke="none"/><path d="M54,44H6a6.00656,6.00656,0,0,0-6,6V78a6.00656,6.00656,0,0,0,6,6H54a6.00656,6.00656,0,0,0,6-6V50A6.00656,6.00656,0,0,0,54,44Zm2,34a2.00229,2.00229,0,0,1-2,2H6a2.00229,2.00229,0,0,1-2-2V66H56Zm0-24H4V50a2.00229,2.00229,0,0,1,2-2H54a2.00229,2.00229,0,0,1,2,2Z" fill="#ffffffff" data-original-color="#000000ff" stroke="none"/><path d="M34,40a2.0001,2.0001,0,0,0,2-2V30H50a1.99979,1.99979,0,0,0,3.41406,1.41406l1.99872-1.99872a2.00889,2.00889,0,0,0,.25073-.30664c.03174-.04749.05334-.099.08057-.14844a1.1717,1.1717,0,0,0,.165-.39539c.01715-.05786.03949-.11334.05139-.17334a2.00564,2.00564,0,0,0,0-.78308c-.0119-.06-.03424-.11548-.05139-.17334a1.1717,1.1717,0,0,0-.165-.39539c-.02722-.04944-.04883-.101-.08057-.14844a2.00889,2.00889,0,0,0-.25073-.30664l-1.99872-1.99872A2,2,0,0,0,50,26H34a2.0001,2.0001,0,0,0-2,2V38A2.0001,2.0001,0,0,0,34,40Z" fill="#ffffffff" data-original-color="#000000ff" stroke="none"/><path d="M55.90912,99.43512a1.1717,1.1717,0,0,0-.165-.39539c-.02722-.04944-.04883-.101-.08057-.14844a2.00889,2.00889,0,0,0-.25073-.30664l-1.99872-1.99872A2,2,0,0,0,50,98H36V90a2,2,0,0,0-4,0v10a2.0001,2.0001,0,0,0,2,2H50a1.99979,1.99979,0,0,0,3.41406,1.41406l1.99872-1.99872a2.00889,2.00889,0,0,0,.25073-.30664c.03174-.04749.05334-.099.08057-.14844a1.1717,1.1717,0,0,0,.165-.39539c.01715-.05786.03949-.11334.05139-.17334a2.00564,2.00564,0,0,0,0-.78308C55.94861,99.54846,55.92627,99.493,55.90912,99.43512Z" fill="#ffffffff" data-original-color="#000000ff" stroke="none"/><path d="M120,17H76a8.00917,8.00917,0,0,0-8,8v78a8.00917,8.00917,0,0,0,8,8h44a8.00917,8.00917,0,0,0,8-8V25A8.00917,8.00917,0,0,0,120,17ZM98,25a2,2,0,1,1-2,2A2,2,0,0,1,98,25Zm3,78H95a2,2,0,0,1,0-4h6a2,2,0,0,1,0,4ZM98,81a17,17,0,1,1,17-17A17,17,0,0,1,98,81Z" fill="#ffffffff" data-original-color="#000000ff" stroke="none"/></g></svg>