<svg height="300" viewBox="0 0 32 32" width="300" xmlns="http://www.w3.org/2000/svg" version="1.1" xmlns:xlink="http://www.w3.org/1999/xlink" xmlns:svgjs="http://svgjs.dev/svgjs"><g transform="matrix(1,0,0,1,0,0)"><g id="_x31_9"><path d="m30 30h-3v-11c0-.5522842.4477158-1 1-1h1c.5522842 0 1 .4477158 1 1z" fill="#ffffffff" data-original-color="#000000ff" stroke="none"/><path d="m26 30h-3v-13c0-.5522842.4477158-1 1-1h1c.5522842 0 1 .4477158 1 1z" fill="#ffffffff" data-original-color="#000000ff" stroke="none"/><path d="m22 30h-3v-9c0-.5522842.4477158-1 1-1h1c.5522842 0 1 .4477158 1 1z" fill="#ffffffff" data-original-color="#000000ff" stroke="none"/><path d="m18 30h-3v-11c0-.5522842.4477148-1 1-1h1c.5522842 0 1 .4477158 1 1z" fill="#ffffffff" data-original-color="#000000ff" stroke="none"/><path d="m14 30h-3v-7c0-.5522842.4477148-1 1-1h1c.5522852 0 1 .4477158 1 1z" fill="#ffffffff" data-original-color="#000000ff" stroke="none"/><path d="m10 30h-3v-9c0-.5522842.4477153-1 1-1h1c.5522852 0 1 .4477158 1 1z" fill="#ffffffff" data-original-color="#000000ff" stroke="none"/><path d="m6 30h-3v-6c0-.5522842.4477153-1 1-1h1c.5522847 0 1 .4477158 1 1z" fill="#ffffffff" data-original-color="#000000ff" stroke="none"/><path d="m11 7c0 2.7568359 2.2431641 5 5 5s5-2.2431641 5-5-2.2431641-5-5-5-5 2.2431641-5 5zm5.5-3.5v.0710449c.8599854.2235718 1.5.9996338 1.5 1.9289551 0 .2763672-.2236328.5-.5.5s-.5-.2236328-.5-.5c0-.5512695-.4482422-1-1-1s-1 .4487305-1 1 .4482422 1 1 1c1.1025391 0 2 .8969727 2 2 0 .9293213-.6400146 1.7053833-1.5 1.9289551v.0710449c0 .2763672-.2236328.5-.5.5s-.5-.2236328-.5-.5v-.0710449c-.8599854-.2235718-1.5-.9996338-1.5-1.9289551 0-.2763672.2236328-.5.5-.5s.5.2236328.5.5c0 .5512695.4482422 1 1 1s1-.4487305 1-1-.4482422-1-1-1c-1.1025391 0-2-.8969727-2-2 0-.9293213.6400146-1.7053833 1.5-1.9289551v-.0710449c0-.2763672.2236328-.5.5-.5s.5.2236328.5.5z" fill="#ffffffff" data-original-color="#000000ff" stroke="none"/><path d="m3.0009766 22c-.2939453 0-.5839844-.1279297-.7822266-.375-.3447266-.4316406-.2744141-1.0605469.15625-1.40625l5-4c.3056641-.2431641.7236328-.2861328 1.0722656-.1132813l3.2773438 1.6386719 3.4941406-4.3691406c.3378906-.4208984.9482422-.4990234 1.3808594-.1748047l3.2246094 2.4179688 3.3945312-4.2431641c.3125-.3886719.8662109-.4921875 1.2958984-.2324219l5 3c.4736328.2841797.6269531.8984375.3427734 1.3720703s-.8984375.6279297-1.3720703.3427734l-4.25-2.5498047-3.4541015 4.3173829c-.3369141.4208984-.9492188.4990234-1.3808594.1748047l-3.2246094-2.4179688-3.3945312 4.2431641c-.2949219.3671875-.8066406.4814453-1.2285156.2695313l-3.4277344-1.7138672-4.5 3.6005859c-.1845703.1474609-.4052734.21875-.6240234.21875z" fill="#ffffffff" data-original-color="#000000ff" stroke="none"/></g></g></svg>