<svg id="Layer_1" viewBox="0 0 512 512" xmlns="http://www.w3.org/2000/svg" data-name="Layer 1" width="300" height="300" version="1.1" xmlns:xlink="http://www.w3.org/1999/xlink" xmlns:svgjs="http://svgjs.dev/svgjs"><g transform="matrix(1,0,0,1,0,0)"><path d="m473.716 74.643h-105.137l25.672-25.672v2.777c0 6.627 5.373 12 12 12s12-5.373 12-12v-31.748c0-6.627-5.373-12-12-12h-31.776c-6.627 0-12 5.373-12 12s5.373 12 12 12h2.806l-42.643 42.643h-87.214l-19.044-17.132c-4.573-4.113-11.516-4.104-16.077.023l-18.911 17.109h-155.108c-16.699 0-30.284 13.585-30.284 30.284v284.657c0 16.683 13.585 30.255 30.284 30.255h161.826c-3.349 25.972-17.547 43.113-34.773 60.161h-29.825c-6.627 0-12 5.373-12 12s5.373 12 12 12h240.975c6.627 0 12-5.373 12-12s-5.373-12-12-12h-29.825c-17.225-17.049-31.424-34.19-34.773-60.161h161.826c16.699 0 30.284-13.572 30.284-30.255v-284.658c0-16.698-13.585-30.284-30.284-30.284zm-163.078 24-17.303 17.303-19.233-17.303zm-272.354 0h128.582l-69.14 62.554c-4.915 4.446-5.294 12.035-.848 16.949 2.369 2.619 5.629 3.95 8.902 3.949 2.87 0 5.751-1.024 8.047-3.102l106.549-96.4 65.369 58.808c4.744 4.267 11.999 4.076 16.511-.436l42.322-42.322h129.137c3.465 0 6.284 2.819 6.284 6.284v232.037h-447.999v-232.038c0-3.465 2.819-6.284 6.284-6.284zm34.006 199.863c0-6.627 5.373-12 12-12h9.487v-63.495c0-3.313 2.687-6 6-6h51.5c3.313 0 6 2.687 6 6v63.495h23.463v-125.666c0-3.313 2.687-6 6-6h51.529c3.313 0 6 2.687 6 6v125.666h23.463v-87.579c0-3.313 2.687-6 6-6h51.529c3.313 0 6 2.687 6 6v87.579h23.463v-160.834c0-3.313 2.687-6 6-6h51.529c3.313 0 6 2.687 6 6v160.834h9.458c6.627 0 12 5.373 12 12s-5.373 12-12 12h-343.421c-6.627 0-12-5.373-12-12z" fill="#ffffffff" data-original-color="#000000ff" stroke="none"/></g></svg>